<svg width="40" height="40" viewBox="0 0 40 40" fill="none" xmlns="http://www.w3.org/2000/svg">
<path opacity="0.2" d="M8.50951 31.4905C7.07139 30.0524 8.02524 27.0331 7.29325 25.2639C6.53443 23.43 3.75 21.9539 3.75 19.9999C3.75 18.046 6.53445 16.57 7.29325 14.7361C8.02525 12.9669 7.07139 9.94764 8.50951 8.50951C9.94764 7.07139 12.9669 8.02524 14.7361 7.29325C16.57 6.53443 18.0461 3.75 20.0001 3.75C21.954 3.75 23.43 6.53445 25.2639 7.29325C27.0331 8.02525 30.0524 7.07139 31.4905 8.50951C32.9286 9.94764 31.9748 12.9669 32.7068 14.7361C33.4656 16.57 36.25 18.0461 36.25 20.0001C36.25 21.954 33.4656 23.43 32.7067 25.2639C31.9747 27.0331 32.9286 30.0524 31.4905 31.4905C30.0524 32.9286 27.0331 31.9748 25.2639 32.7068C23.43 33.4656 21.9539 36.25 19.9999 36.25C18.046 36.25 16.57 33.4656 14.7361 32.7067C12.9669 31.9747 9.94764 32.9286 8.50951 31.4905Z" fill="#23BD33"/>
<path d="M8.50951 31.4905C7.07139 30.0524 8.02524 27.0331 7.29325 25.2639C6.53443 23.43 3.75 21.9539 3.75 19.9999C3.75 18.046 6.53445 16.57 7.29325 14.7361C8.02525 12.9669 7.07139 9.94764 8.50951 8.50951C9.94764 7.07139 12.9669 8.02524 14.7361 7.29325C16.57 6.53443 18.0461 3.75 20.0001 3.75C21.954 3.75 23.43 6.53445 25.2639 7.29325C27.0331 8.02525 30.0524 7.07139 31.4905 8.50951C32.9286 9.94764 31.9748 12.9669 32.7068 14.7361C33.4656 16.57 36.25 18.0461 36.25 20.0001C36.25 21.954 33.4656 23.43 32.7067 25.2639C31.9747 27.0331 32.9286 30.0524 31.4905 31.4905C30.0524 32.9286 27.0331 31.9748 25.2639 32.7068C23.43 33.4656 21.9539 36.25 19.9999 36.25C18.046 36.25 16.57 33.4656 14.7361 32.7067C12.9669 31.9747 9.94764 32.9286 8.50951 31.4905Z" stroke="#23BD33" stroke-width="2" stroke-linecap="round" stroke-linejoin="round"/>
<path d="M26.875 16.25L17.7083 25L13.125 20.625" stroke="#23BD33" stroke-width="2" stroke-linecap="round" stroke-linejoin="round"/>
</svg>
