<svg width="28" height="22" viewBox="0 0 28 22" fill="none" xmlns="http://www.w3.org/2000/svg">
<path d="M22.746 11.242C25.88 11.242 28 13.426 28 16.662C28 19.574 25.568 22 22.274 22C18.666 22 16 19.088 16 14.64C16 4.53 23.372 0.486 28 0V4.448C24.862 5.014 21.334 8.168 21.176 11.648C21.334 11.568 21.96 11.242 22.746 11.242Z" fill="#FF6636"/>
<path d="M6.746 11.242C9.882 11.242 12 13.426 12 16.662C12 19.574 9.568 22 6.274 22C2.666 22 0 19.088 0 14.64C0 4.53 7.372 0.486 12 0V4.448C8.862 5.014 5.334 8.168 5.176 11.648C5.334 11.568 5.96 11.242 6.746 11.242Z" fill="#FF6636"/>
</svg>
