<svg width="20" height="20" viewBox="0 0 20 20" fill="none" xmlns="http://www.w3.org/2000/svg">
<path d="M16.8757 5.625H3.12573C2.78055 5.625 2.50073 5.90482 2.50073 6.25V16.25C2.50073 16.5952 2.78055 16.875 3.12573 16.875H16.8757C17.2209 16.875 17.5007 16.5952 17.5007 16.25V6.25C17.5007 5.90482 17.2209 5.625 16.8757 5.625Z" stroke="#23BD33" stroke-width="1.2" stroke-linecap="round" stroke-linejoin="round"/>
<path d="M13.125 5.625V4.375C13.125 4.04348 12.9933 3.72554 12.7589 3.49112C12.5245 3.2567 12.2065 3.125 11.875 3.125H8.125C7.79348 3.125 7.47554 3.2567 7.24112 3.49112C7.0067 3.72554 6.875 4.04348 6.875 4.375V5.625" stroke="#23BD33" stroke-width="1.2" stroke-linecap="round" stroke-linejoin="round"/>
<path d="M17.5006 9.86719C15.2211 11.186 12.6334 11.8784 9.99998 11.8743C7.36696 11.8784 4.77968 11.1862 2.50049 9.86785" stroke="#23BD33" stroke-width="1.2" stroke-linecap="round" stroke-linejoin="round"/>
<path d="M9.0625 9.375H10.9375" stroke="#23BD33" stroke-width="1.2" stroke-linecap="round" stroke-linejoin="round"/>
</svg>
