<svg width="32" height="20" viewBox="0 0 32 20" fill="none" xmlns="http://www.w3.org/2000/svg">
<path d="M20.3312 17.7849H11.6797V2.24498H20.3314L20.3312 17.7849Z" fill="#FF5F00"/>
<path d="M12.2247 10.0131C12.2247 6.86088 13.7015 4.05282 16.001 2.24318C14.2604 0.871363 12.1075 0.12683 9.89079 0.130103C4.43028 0.130103 0.00390625 4.55483 0.00390625 10.0131C0.00390625 15.4715 4.43028 19.8962 9.89079 19.8962C12.1075 19.8995 14.2605 19.155 16.0012 17.7831C13.7018 15.9738 12.2247 13.1656 12.2247 10.0131Z" fill="#EB001B"/>
<path d="M31.9981 10.0131C31.9981 15.4715 27.5717 19.8962 22.1112 19.8962C19.8942 19.8994 17.741 19.1549 16 17.7831C18.3002 15.9735 19.7769 13.1656 19.7769 10.0131C19.7769 6.86072 18.3002 4.05282 16 2.24318C17.741 0.871404 19.8941 0.126887 22.1111 0.130103C27.5716 0.130103 31.998 4.55483 31.998 10.0131" fill="#F79E1B"/>
</svg>
