<svg width="32" height="32" viewBox="0 0 32 32" fill="none" xmlns="http://www.w3.org/2000/svg">
<path opacity="0.2" d="M27.001 9H5.00104C4.44875 9 4.00104 9.44772 4.00104 10V26C4.00104 26.5523 4.44875 27 5.00104 27H27.001C27.5533 27 28.001 26.5523 28.001 26V10C28.001 9.44772 27.5533 9 27.001 9Z" fill="#23BD33"/>
<path d="M16 14.5V21.5" stroke="#23BD33" stroke-width="2" stroke-linecap="round" stroke-linejoin="round"/>
<path d="M19.5 18H12.5" stroke="#23BD33" stroke-width="2" stroke-linecap="round" stroke-linejoin="round"/>
<path d="M27.001 9H5.00104C4.44875 9 4.00104 9.44772 4.00104 10V26C4.00104 26.5523 4.44875 27 5.00104 27H27.001C27.5533 27 28.001 26.5523 28.001 26V10C28.001 9.44772 27.5533 9 27.001 9Z" stroke="#23BD33" stroke-width="2" stroke-linecap="round" stroke-linejoin="round"/>
<path d="M21 9V7C21 6.46957 20.7893 5.96086 20.4142 5.58579C20.0391 5.21071 19.5304 5 19 5H13C12.4696 5 11.9609 5.21071 11.5858 5.58579C11.2107 5.96086 11 6.46957 11 7V9" stroke="#23BD33" stroke-width="2" stroke-linecap="round" stroke-linejoin="round"/>
</svg>
