<svg width="144" height="30" viewBox="0 0 144 30" fill="none" xmlns="http://www.w3.org/2000/svg">
<path d="M1.93555 11.2291L15.9735 3.74219L30.0115 11.2291L15.9735 18.716L1.93555 11.2291Z" stroke="#FF6636" stroke-width="2.24607" stroke-linecap="round" stroke-linejoin="round"/>
<path d="M22.9926 28.076V14.9739L15.9736 11.2305" stroke="#FF6636" stroke-width="2.24607" stroke-linecap="round" stroke-linejoin="round"/>
<path d="M26.7358 12.9766V19.3546C26.7362 19.5565 26.6709 19.753 26.5499 19.9146C25.7618 20.9632 22.437 24.7996 15.9734 24.7996C9.50973 24.7996 6.18496 20.9632 5.39689 19.9146C5.27581 19.753 5.21055 19.5565 5.21094 19.3546V12.9766" stroke="#FF6636" stroke-width="2.24607" stroke-linecap="round" stroke-linejoin="round"/>
<path d="M38.6561 24H50.0566V21.3541H41.8125V16.5982H49.4015V13.9522H41.8125V9.22186H49.9885V6.57592H38.6561V24ZM57.2034 24.2297C59.4494 24.2297 60.4619 22.894 60.9468 21.9411H61.134V24H64.1628V6.57592H61.0745V13.0929H60.9468C60.4789 12.1486 59.5175 10.7618 57.2119 10.7618C54.1916 10.7618 51.8179 13.127 51.8179 17.483C51.8179 21.788 54.1235 24.2297 57.2034 24.2297ZM58.0627 21.7029C56.0293 21.7029 54.9573 19.9162 54.9573 17.466C54.9573 15.0327 56.0123 13.2886 58.0627 13.2886C60.045 13.2886 61.134 14.9306 61.134 17.466C61.134 20.0013 60.028 21.7029 58.0627 21.7029ZM75.0552 18.5039C75.0552 20.4948 73.6343 21.4817 72.2731 21.4817C70.7927 21.4817 69.8058 20.4352 69.8058 18.7762V10.9319H66.726V19.2526C66.726 22.392 68.5126 24.1702 71.082 24.1702C73.0388 24.1702 74.4171 23.1407 75.0126 21.6774H75.1487V24H78.135V10.9319H75.0552V18.5039ZM86.2665 29.1728C89.7973 29.1728 92.4007 27.5563 92.4007 24.2127V10.9319H89.3634V13.0929H89.1932C88.7253 12.1486 87.7469 10.7618 85.4413 10.7618C82.421 10.7618 80.0473 13.127 80.0473 17.4234C80.0473 21.6859 82.421 23.8128 85.4328 23.8128C87.6703 23.8128 88.7168 22.6132 89.1932 21.6518H89.3464V24.1276C89.3464 26.0504 88.0702 26.8416 86.3176 26.8416C84.4629 26.8416 83.6461 25.9653 83.2718 25.1996L80.4982 25.8717C81.0597 27.7009 82.94 29.1728 86.2665 29.1728ZM86.2921 21.3966C84.2587 21.3966 83.1867 19.8141 83.1867 17.4064C83.1867 15.0327 84.2417 13.2886 86.2921 13.2886C88.2744 13.2886 89.3634 14.9306 89.3634 17.4064C89.3634 19.8992 88.2574 21.3966 86.2921 21.3966ZM103.168 18.5039C103.168 20.4948 101.747 21.4817 100.385 21.4817C98.9051 21.4817 97.9182 20.4352 97.9182 18.7762V10.9319H94.8384V19.2526C94.8384 22.392 96.625 24.1702 99.1944 24.1702C101.151 24.1702 102.529 23.1407 103.125 21.6774H103.261V24H106.247V10.9319H103.168V18.5039ZM112.456 24.2637C114.507 24.2637 115.732 23.3024 116.293 22.2048H116.395V24H119.356V15.2539C119.356 11.7997 116.54 10.7618 114.047 10.7618C111.299 10.7618 109.189 11.9869 108.509 14.3691L111.384 14.7775C111.69 13.8842 112.558 13.1185 114.064 13.1185C115.493 13.1185 116.276 13.8501 116.276 15.1348V15.1859C116.276 16.0707 115.349 16.1132 113.043 16.3599C110.508 16.6322 108.083 17.3894 108.083 20.3331C108.083 22.9025 109.963 24.2637 112.456 24.2637ZM113.256 22.0007C111.971 22.0007 111.052 21.4136 111.052 20.2821C111.052 19.0995 112.082 18.606 113.46 18.4103C114.268 18.2997 115.885 18.0955 116.285 17.7723V19.3122C116.285 20.767 115.111 22.0007 113.256 22.0007ZM121.734 24H124.814V16.3174C124.814 14.6584 126.065 13.4843 127.758 13.4843C128.277 13.4843 128.923 13.5779 129.187 13.663V10.8298C128.906 10.7788 128.421 10.7448 128.081 10.7448C126.584 10.7448 125.333 11.5955 124.857 13.1099H124.72V10.9319H121.734V24ZM134.826 24.2297C137.072 24.2297 138.084 22.894 138.569 21.9411H138.756V24H141.785V6.57592H138.697V13.0929H138.569C138.101 12.1486 137.14 10.7618 134.834 10.7618C131.814 10.7618 129.44 13.127 129.44 17.483C129.44 21.788 131.746 24.2297 134.826 24.2297ZM135.685 21.7029C133.652 21.7029 132.58 19.9162 132.58 17.466C132.58 15.0327 133.635 13.2886 135.685 13.2886C137.667 13.2886 138.756 14.9306 138.756 17.466C138.756 20.0013 137.65 21.7029 135.685 21.7029Z" fill="white"/>
</svg>
