<svg width="24" height="24" viewBox="0 0 24 24" fill="none" xmlns="http://www.w3.org/2000/svg">
<path d="M20.5816 11.3465L4.74585 2.47843C4.61262 2.40383 4.4598 2.37166 4.30781 2.38624C4.15582 2.40081 4.0119 2.46143 3.89528 2.55999C3.77866 2.65855 3.6949 2.79035 3.65519 2.93779C3.61549 3.08523 3.62173 3.24127 3.67309 3.38506L6.66006 11.7486C6.71832 11.9117 6.71832 12.09 6.66006 12.2531L3.67309 20.6166C3.62173 20.7604 3.61549 20.9165 3.65519 21.0639C3.6949 21.2113 3.77866 21.3431 3.89528 21.4417C4.0119 21.5403 4.15582 21.6009 4.30781 21.6155C4.45981 21.63 4.61263 21.5979 4.74585 21.5233L20.5816 12.6552C20.6979 12.5901 20.7948 12.4951 20.8622 12.3801C20.9296 12.2651 20.9652 12.1342 20.9652 12.0008C20.9652 11.8675 20.9296 11.7366 20.8622 11.6216C20.7948 11.5066 20.6979 11.4116 20.5816 11.3465Z" fill="white"/>
<path d="M6.75 12H12.75" stroke="#FF6636" stroke-width="1.5" stroke-linecap="round" stroke-linejoin="round"/>
</svg>
