<svg width="32" height="32" viewBox="0 0 32 32" fill="none" xmlns="http://www.w3.org/2000/svg">
<path opacity="0.2" d="M15.0008 7.00049L7.5412 9.79785C7.37689 9.85946 7.23168 9.96322 7.12017 10.0987C7.00866 10.2342 6.93476 10.3967 6.90592 10.5698L4.00079 28.0005L21.4315 25.0953C21.6046 25.0665 21.7671 24.9926 21.9026 24.8811C22.0381 24.7696 22.1418 24.6244 22.2034 24.4601L25.0008 17.0005L15.0008 7.00049ZM14.5001 20.0001C14.0056 20.0001 13.5223 19.8534 13.1111 19.5787C12.7 19.304 12.3796 18.9136 12.1904 18.4568C12.0011 18 11.9516 17.4973 12.0481 17.0123C12.1446 16.5274 12.3827 16.0819 12.7323 15.7323C13.0819 15.3827 13.5274 15.1446 14.0123 15.0481C14.4973 14.9516 15 15.0011 15.4568 15.1904C15.9136 15.3796 16.304 15.7 16.5787 16.1111C16.8534 16.5223 17.0001 17.0056 17.0001 17.5001C17.0001 17.8284 16.9354 18.1535 16.8098 18.4568C16.6841 18.7601 16.5 19.0357 16.2678 19.2678C16.0357 19.5 15.7601 19.6841 15.4568 19.8098C15.1535 19.9354 14.8284 20.0001 14.5001 20.0001Z" fill="#FF6636"/>
<path d="M14.5 20C15.8807 20 17 18.8807 17 17.5C17 16.1193 15.8807 15 14.5 15C13.1193 15 12 16.1193 12 17.5C12 18.8807 13.1193 20 14.5 20Z" stroke="#FF6636" stroke-width="2" stroke-linecap="round" stroke-linejoin="round"/>
<path d="M4.00067 28.0004L12.7322 19.2677" stroke="#FF6636" stroke-width="2" stroke-linecap="round" stroke-linejoin="round"/>
<path d="M4.00067 28.0005L21.4314 25.0954C21.6045 25.0665 21.7669 24.9926 21.9024 24.8811C22.0379 24.7696 22.1417 24.6244 22.2033 24.4601L25.0007 17.0005L15.0007 7.00049L7.54106 9.79785C7.37675 9.85946 7.23155 9.96323 7.12004 10.0987C7.00853 10.2342 6.93464 10.3967 6.90579 10.5698L4.00067 28.0005Z" stroke="#FF6636" stroke-width="2" stroke-linecap="round" stroke-linejoin="round"/>
<path d="M25.0007 17.0003L28.2936 13.7074C28.3864 13.6146 28.4601 13.5043 28.5103 13.383C28.5606 13.2617 28.5865 13.1317 28.5865 13.0003C28.5865 12.869 28.5606 12.739 28.5103 12.6177C28.4601 12.4963 28.3864 12.3861 28.2936 12.2932L19.7078 3.70744C19.5202 3.51991 19.2659 3.41455 19.0007 3.41455C18.7355 3.41455 18.4811 3.51991 18.2936 3.70744L15.0007 7.00034" stroke="#FF6636" stroke-width="2" stroke-linecap="round" stroke-linejoin="round"/>
</svg>
