<svg width="29" height="32" viewBox="0 0 29 32" fill="none" xmlns="http://www.w3.org/2000/svg">
<path d="M18.802 9.76857L2.01853 0.123422C1.80763 0.000292394 1.5423 0.00713293 1.33821 0.130262C1.12731 0.253392 0.998047 0.472289 0.998047 0.718548C0.998047 0.718548 1.00485 1.60782 1.01165 3.07169L13.237 15.3641L18.802 9.76857Z" fill="url(#paint0_linear)"/>
<path d="M1.01172 3.07178C1.03213 8.35267 1.09336 21.1718 1.12057 27.5541L13.2439 15.3642L1.01172 3.07178Z" fill="url(#paint1_linear)"/>
<path d="M28.4084 15.2889L18.8023 9.76855L13.2305 15.3641L19.5166 21.6848L28.4152 16.4723C28.6262 16.3492 28.7554 16.1234 28.7554 15.884C28.7554 15.6377 28.6193 15.412 28.4084 15.2889Z" fill="url(#paint2_linear)"/>
<path d="M1.11328 27.554C1.12689 29.8319 1.13369 31.2889 1.13369 31.2889C1.13369 31.5351 1.26295 31.7609 1.47385 31.8772C1.68475 32.0003 1.94327 32.0003 2.15417 31.8772L19.5227 21.6916L13.2366 15.371L1.11328 27.554Z" fill="url(#paint3_linear)"/>
<defs>
<linearGradient id="paint0_linear" x1="0.998047" y1="7.70232" x2="18.8052" y2="7.70232" gradientUnits="userSpaceOnUse">
<stop stop-color="#63BE6B"/>
<stop offset="0.506" stop-color="#5BBC6A"/>
<stop offset="1" stop-color="#4AB96A"/>
</linearGradient>
<linearGradient id="paint1_linear" x1="1.00845" y1="15.3159" x2="13.2368" y2="15.3159" gradientUnits="userSpaceOnUse">
<stop stop-color="#3EC6F2"/>
<stop offset="1" stop-color="#45AFE3"/>
</linearGradient>
<linearGradient id="paint2_linear" x1="13.237" y1="15.731" x2="28.7538" y2="15.731" gradientUnits="userSpaceOnUse">
<stop stop-color="#FAA51A"/>
<stop offset="0.387" stop-color="#FAB716"/>
<stop offset="0.741" stop-color="#FAC412"/>
<stop offset="1" stop-color="#FAC80F"/>
</linearGradient>
<linearGradient id="paint3_linear" x1="1.11627" y1="23.67" x2="19.5225" y2="23.67" gradientUnits="userSpaceOnUse">
<stop stop-color="#EC3B50"/>
<stop offset="1" stop-color="#E7515B"/>
</linearGradient>
</defs>
</svg>
