<svg width="16" height="16" viewBox="0 0 16 16" fill="none" xmlns="http://www.w3.org/2000/svg">
<path opacity="0.2" d="M11.5007 5H2.50073C2.22459 5 2.00073 5.22386 2.00073 5.5V12.5C2.00073 12.7761 2.22459 13 2.50073 13H11.5007C11.7769 13 12.0007 12.7761 12.0007 12.5V5.5C12.0007 5.22386 11.7769 5 11.5007 5Z" fill="#fff"/>
<path d="M11.5007 5H2.50073C2.22459 5 2.00073 5.22386 2.00073 5.5V12.5C2.00073 12.7761 2.22459 13 2.50073 13H11.5007C11.7769 13 12.0007 12.7761 12.0007 12.5V5.5C12.0007 5.22386 11.7769 5 11.5007 5Z" fill="#fff"/>
<path d="M4.00073 3H13.5007C13.6333 3 13.7605 3.05268 13.8543 3.14645C13.9481 3.24021 14.0007 3.36739 14.0007 3.5V11" stroke="#fff" stroke-width="1.2" stroke-linecap="round" stroke-linejoin="round"/>
</svg>
