<svg width="32" height="32" viewBox="0 0 32 32" fill="none" xmlns="http://www.w3.org/2000/svg">
<path opacity="0.2" d="M11 20C14.5899 20 17.5 17.0899 17.5 13.5C17.5 9.91015 14.5899 7 11 7C7.41015 7 4.5 9.91015 4.5 13.5C4.5 17.0899 7.41015 20 11 20Z" fill="#FD8E1F"/>
<path d="M11 20C14.5899 20 17.5 17.0899 17.5 13.5C17.5 9.91015 14.5899 7 11 7C7.41015 7 4.5 9.91015 4.5 13.5C4.5 17.0899 7.41015 20 11 20Z" stroke="#FD8E1F" stroke-width="2" stroke-miterlimit="10"/>
<path d="M19.4266 7.24166C20.3207 6.98977 21.2583 6.93239 22.1764 7.07338C23.0944 7.21437 23.9716 7.55046 24.7489 8.05901C25.5261 8.56756 26.1853 9.23677 26.6822 10.0216C27.179 10.8063 27.5019 11.6885 27.6291 12.6086C27.7563 13.5287 27.6848 14.4653 27.4195 15.3555C27.1543 16.2456 26.7013 17.0686 26.0912 17.7689C25.4811 18.4693 24.728 19.0307 23.8826 19.4155C23.0372 19.8003 22.1192 19.9994 21.1903 19.9995" stroke="#FD8E1F" stroke-width="2" stroke-linecap="round" stroke-linejoin="round"/>
<path d="M1.99951 24.6746C3.01468 23.2306 4.36238 22.052 5.92882 21.2384C7.49527 20.4248 9.23448 20.0001 10.9996 20C12.7648 19.9999 14.504 20.4246 16.0705 21.238C17.637 22.0515 18.9848 23.23 20.0001 24.6739" stroke="#FD8E1F" stroke-width="2" stroke-linecap="round" stroke-linejoin="round"/>
<path d="M21.1902 20C22.9555 19.9987 24.6951 20.4228 26.2617 21.2364C27.8284 22.05 29.1759 23.2291 30.1902 24.6739" stroke="#FD8E1F" stroke-width="2" stroke-linecap="round" stroke-linejoin="round"/>
</svg>
