<svg width="20" height="20" viewBox="0 0 20 20" fill="none" xmlns="http://www.w3.org/2000/svg">
<path fill-rule="evenodd" clip-rule="evenodd" d="M16.6324 3.34007C14.8783 1.58386 12.5454 0.616264 10.0601 0.615234C4.93885 0.615234 0.770912 4.78306 0.768852 9.90566C0.768166 11.5432 1.19595 13.1417 2.00905 14.5507L0.690918 19.3652L5.61634 18.0732C6.97349 18.8135 8.5014 19.2036 10.0563 19.2041H10.0602C15.1809 19.2041 19.3492 15.0359 19.3512 9.9131C19.3522 7.43042 18.3867 5.09617 16.6324 3.34007ZM10.0601 17.635H10.0569C8.67123 17.6344 7.31224 17.262 6.1264 16.5586L5.84454 16.3911L2.92171 17.1579L3.70186 14.3082L3.51818 14.016C2.74513 12.7865 2.33692 11.3654 2.33761 9.90623C2.33921 5.64846 5.80357 2.18445 10.0632 2.18445C12.1259 2.18513 14.0648 2.98943 15.5228 4.44912C16.9808 5.90881 17.7832 7.84904 17.7826 9.91253C17.7807 14.1706 14.3166 17.635 10.0601 17.635ZM14.296 11.8513C14.0639 11.735 12.9225 11.1736 12.7096 11.096C12.497 11.0185 12.342 10.9799 12.1874 11.2122C12.0326 11.4445 11.5878 11.9675 11.4523 12.1224C11.3168 12.2773 11.1815 12.2968 10.9493 12.1805C10.7171 12.0644 9.9691 11.8191 9.0823 11.0282C8.39222 10.4126 7.92633 9.6524 7.79083 9.42009C7.65556 9.18754 7.78969 9.07402 7.89268 8.9463C8.144 8.63422 8.39565 8.30704 8.47301 8.1522C8.55049 7.99724 8.51169 7.86163 8.45356 7.74547C8.39565 7.62932 7.93137 6.48662 7.73796 6.02165C7.54936 5.56915 7.35813 5.63026 7.21554 5.62317C7.08027 5.61642 6.92543 5.61504 6.77059 5.61504C6.61587 5.61504 6.36433 5.67306 6.15147 5.90561C5.93872 6.13804 5.33905 6.6996 5.33905 7.84229C5.33905 8.98498 6.17092 10.0889 6.28696 10.2438C6.40301 10.3988 7.92404 12.7437 10.2528 13.7492C10.8067 13.9886 11.2391 14.1313 11.5763 14.2383C12.1325 14.415 12.6384 14.39 13.0385 14.3303C13.4846 14.2636 14.4119 13.7686 14.6056 13.2264C14.799 12.6841 14.799 12.2193 14.7408 12.1224C14.6829 12.0256 14.5281 11.9675 14.296 11.8513Z" fill="#ff6636"/>
</svg>
