<svg width="28" height="22" viewBox="0 0 28 22" fill="none" xmlns="http://www.w3.org/2000/svg">
<path d="M5.254 10.758C2.12 10.758 0 8.574 0 5.338C0 2.426 2.432 0 5.726 0C9.334 0 12 2.912 12 7.36C12 17.47 4.628 21.514 0 22V17.552C3.138 16.986 6.666 13.832 6.824 10.352C6.666 10.432 6.04 10.758 5.254 10.758Z" fill="#FF6636"/>
<path d="M21.254 10.758C18.118 10.758 16 8.574 16 5.338C16 2.426 18.432 0 21.726 0C25.334 0 28 2.912 28 7.36C28 17.47 20.628 21.514 16 22V17.552C19.138 16.986 22.666 13.832 22.824 10.352C22.666 10.432 22.04 10.758 21.254 10.758Z" fill="#FF6636"/>
</svg>
