<svg width="40" height="40" viewBox="0 0 40 40" fill="none" xmlns="http://www.w3.org/2000/svg">
<path opacity="0.2" d="M13.75 25C18.2373 25 21.875 21.3623 21.875 16.875C21.875 12.3877 18.2373 8.75 13.75 8.75C9.26272 8.75 5.62503 12.3877 5.62503 16.875C5.62503 21.3623 9.26272 25 13.75 25Z" fill="#FF6636"/>
<path d="M13.75 25C18.2373 25 21.875 21.3623 21.875 16.875C21.875 12.3877 18.2373 8.75 13.75 8.75C9.26272 8.75 5.62503 12.3877 5.62503 16.875C5.62503 21.3623 9.26272 25 13.75 25Z" stroke="#FF6636" stroke-width="2" stroke-miterlimit="10"/>
<path d="M24.2834 9.05256C25.4009 8.7377 26.573 8.66597 27.7206 8.84221C28.8682 9.01845 29.9646 9.43856 30.9362 10.0743C31.9077 10.7099 32.7318 11.5465 33.3528 12.5274C33.9739 13.5084 34.3775 14.6111 34.5365 15.7612C34.6955 16.9113 34.6062 18.0821 34.2746 19.1948C33.943 20.3075 33.3768 21.3362 32.6141 22.2116C31.8515 23.0871 30.9101 23.7889 29.8533 24.2699C28.7966 24.7508 27.6491 24.9998 26.488 24.9999" stroke="#FF6636" stroke-width="2" stroke-linecap="round" stroke-linejoin="round"/>
<path d="M2.49951 30.8432C3.76847 29.0382 5.45309 27.565 7.41115 26.548C9.36921 25.531 11.5432 25.0001 13.7496 25C15.9561 24.9999 18.1301 25.5307 20.0882 26.5476C22.0464 27.5644 23.7311 29.0375 25.0002 30.8424" stroke="#FF6636" stroke-width="2" stroke-linecap="round" stroke-linejoin="round"/>
<path d="M26.4877 25C28.6943 24.9984 30.8688 25.5285 32.8271 26.5455C34.7854 27.5625 36.4698 29.0364 37.7378 30.8424" stroke="#FF6636" stroke-width="2" stroke-linecap="round" stroke-linejoin="round"/>
</svg>
