<svg width="24" height="24" viewBox="0 0 24 24" fill="none" xmlns="http://www.w3.org/2000/svg">
<path d="M2.99951 4.75V17.75C2.99951 17.8664 3.02662 17.9813 3.07869 18.0854C3.13076 18.1896 3.20636 18.2801 3.29951 18.35C3.39266 18.4199 3.50079 18.4671 3.61535 18.4879C3.7299 18.5087 3.84774 18.5026 3.95951 18.47L20.4595 13.6575C20.6153 13.6121 20.7521 13.5173 20.8495 13.3875C20.9469 13.2577 20.9995 13.0998 20.9995 12.9375V9.5625C20.9995 9.40022 20.9469 9.24232 20.8495 9.1125C20.7521 8.98268 20.6153 8.88794 20.4595 8.8425L3.95951 4.03C3.84774 3.9974 3.7299 3.99127 3.61535 4.0121C3.50079 4.03293 3.39266 4.08014 3.29951 4.15C3.20636 4.21986 3.13076 4.31045 3.07869 4.41459C3.02662 4.51873 2.99951 4.63357 2.99951 4.75V4.75Z" stroke="#A1A5B3" stroke-width="1.5" stroke-linecap="round" stroke-linejoin="round"/>
<path d="M17.25 14.5934V17.9998C17.25 18.1988 17.171 18.3895 17.0303 18.5302C16.8897 18.6708 16.6989 18.7498 16.5 18.7498H13.5C13.3011 18.7498 13.1103 18.6708 12.9697 18.5302C12.829 18.3895 12.75 18.1988 12.75 17.9998V6.59375" stroke="#A1A5B3" stroke-width="1.5" stroke-linecap="round" stroke-linejoin="round"/>
</svg>
