<svg width="24" height="24" viewBox="0 0 24 24" fill="none" xmlns="http://www.w3.org/2000/svg">
<path d="M21 16.6237V7.37598C21 7.2429 20.9646 7.11222 20.8974 6.99734C20.8302 6.88247 20.7337 6.78754 20.6177 6.72229L12.3677 2.08167C12.2554 2.01852 12.1288 1.98535 12 1.98535C11.8712 1.98535 11.7446 2.01852 11.6323 2.08167L3.3823 6.72229C3.26632 6.78754 3.16978 6.88247 3.10259 6.99734C3.03541 7.11222 3 7.2429 3 7.37598V16.6237C3 16.7568 3.03541 16.8875 3.10259 17.0023C3.16978 17.1172 3.26632 17.2121 3.3823 17.2774L11.6323 21.918C11.7446 21.9812 11.8712 22.0143 12 22.0143C12.1288 22.0143 12.2554 21.9812 12.3677 21.918L20.6177 17.2774C20.7337 17.2121 20.8302 17.1172 20.8974 17.0023C20.9646 16.8875 21 16.7568 21 16.6237Z" stroke="#A1A5B3" stroke-width="1.5" stroke-linecap="round" stroke-linejoin="round"/>
<path d="M16.5958 14.2979V9.42291L7.5 4.40625" stroke="#A1A5B3" stroke-width="1.5" stroke-linecap="round" stroke-linejoin="round"/>
<path d="M20.8967 6.99605L12.0891 11.9998L3.104 6.99512" stroke="#A1A5B3" stroke-width="1.5" stroke-linecap="round" stroke-linejoin="round"/>
<path d="M12.089 12L12.001 22.0145" stroke="#A1A5B3" stroke-width="1.5" stroke-linecap="round" stroke-linejoin="round"/>
</svg>
