<svg width="32" height="32" viewBox="0 0 32 32" fill="none" xmlns="http://www.w3.org/2000/svg">
<g clip-path="url(#clip0)">
<path d="M21.9983 0.000183105C20.2923 0.118182 18.2983 1.21018 17.1364 2.63217C16.0764 3.92216 15.2044 5.83815 15.5444 7.70014C17.4084 7.75814 19.3343 6.64014 20.4503 5.19415C21.4943 3.84816 22.2843 1.94417 21.9983 0.000183105Z" fill="white"/>
<path d="M28.7411 10.7362C27.1031 8.68223 24.8011 7.49023 22.6271 7.49023C19.7571 7.49023 18.5431 8.86423 16.5492 8.86423C14.4932 8.86423 12.9312 7.49423 10.4492 7.49423C8.0112 7.49423 5.41522 8.98423 3.76923 11.5322C1.45524 15.1202 1.85124 21.8662 5.60122 27.6121C6.94321 29.6681 8.7352 31.9801 11.0792 32.0001C13.1652 32.0201 13.7532 30.6621 16.5792 30.6481C19.4051 30.6321 19.9411 32.0181 22.0231 31.9961C24.3691 31.9781 26.2591 29.4161 27.6011 27.3601C28.5631 25.8861 28.9211 25.1441 29.6671 23.4801C24.2411 21.4142 23.3711 13.6982 28.7411 10.7362Z" fill="white"/>
</g>
<defs>
<clipPath id="clip0">
<rect width="32" height="32" fill="white" transform="translate(0 0.000183105)"/>
</clipPath>
</defs>
</svg>
