<svg width="24" height="24" viewBox="0 0 24 24" fill="none" xmlns="http://www.w3.org/2000/svg">
<path d="M19.5 13.875C19.5 15.8641 18.7098 17.7718 17.3033 19.1783C15.8968 20.5848 13.9891 21.375 12 21.375C10.0109 21.375 8.10322 20.5848 6.6967 19.1783C5.29018 17.7718 4.5 15.8641 4.5 13.875V10.125C4.5 8.13588 5.29018 6.22822 6.6967 4.8217C8.10322 3.41518 10.0109 2.625 12 2.625C13.9891 2.625 15.8968 3.41518 17.3033 4.8217C18.7098 6.22822 19.5 8.13588 19.5 10.125V13.875Z" stroke="#A1A5B3" stroke-width="1.5" stroke-linecap="round" stroke-linejoin="round"/>
<path d="M19.5 12H4.5" stroke="#A1A5B3" stroke-width="1.5" stroke-linecap="round" stroke-linejoin="round"/>
<path d="M15 8.625C15 8.83211 14.8321 9 14.625 9C14.4179 9 14.25 8.83211 14.25 8.625C14.25 8.41789 14.4179 8.25 14.625 8.25C14.8321 8.25 15 8.41789 15 8.625Z" fill="#A1A5B3" stroke="#A1A5B3" stroke-width="1.5"/>
<path d="M9.75 8.625C9.75 8.83211 9.58211 9 9.375 9C9.16789 9 9 8.83211 9 8.625C9 8.41789 9.16789 8.25 9.375 8.25C9.58211 8.25 9.75 8.41789 9.75 8.625Z" fill="#A1A5B3" stroke="#A1A5B3" stroke-width="1.5"/>
<path d="M5.25 2.625L7.15446 4.40025" stroke="#A1A5B3" stroke-width="1.5" stroke-linecap="round" stroke-linejoin="round"/>
<path d="M18.75 2.625L16.8455 4.40031" stroke="#A1A5B3" stroke-width="1.5" stroke-linecap="round" stroke-linejoin="round"/>
</svg>
