<svg width="24" height="24" viewBox="0 0 24 24" fill="none" xmlns="http://www.w3.org/2000/svg">
<path d="M14.625 9.375H9.375V14.625H14.625V9.375Z" stroke="#FF6636" stroke-width="1.5" stroke-linecap="round" stroke-linejoin="round"/>
<path d="M18.75 4.5H5.25C4.83579 4.5 4.5 4.83579 4.5 5.25V18.75C4.5 19.1642 4.83579 19.5 5.25 19.5H18.75C19.1642 19.5 19.5 19.1642 19.5 18.75V5.25C19.5 4.83579 19.1642 4.5 18.75 4.5Z" stroke="#FF6636" stroke-width="1.5" stroke-linecap="round" stroke-linejoin="round"/>
<path d="M19.5 9.75H21.75" stroke="#FF6636" stroke-width="1.5" stroke-linecap="round" stroke-linejoin="round"/>
<path d="M19.5 14.25H21.75" stroke="#FF6636" stroke-width="1.5" stroke-linecap="round" stroke-linejoin="round"/>
<path d="M2.25 9.75H4.5" stroke="#FF6636" stroke-width="1.5" stroke-linecap="round" stroke-linejoin="round"/>
<path d="M2.25 14.25H4.5" stroke="#FF6636" stroke-width="1.5" stroke-linecap="round" stroke-linejoin="round"/>
<path d="M14.25 19.5V21.75" stroke="#FF6636" stroke-width="1.5" stroke-linecap="round" stroke-linejoin="round"/>
<path d="M9.75 19.5V21.75" stroke="#FF6636" stroke-width="1.5" stroke-linecap="round" stroke-linejoin="round"/>
<path d="M14.25 2.25V4.5" stroke="#FF6636" stroke-width="1.5" stroke-linecap="round" stroke-linejoin="round"/>
<path d="M9.75 2.25V4.5" stroke="#FF6636" stroke-width="1.5" stroke-linecap="round" stroke-linejoin="round"/>
</svg>
