<svg width="20" height="20" viewBox="0 0 20 20" fill="none" xmlns="http://www.w3.org/2000/svg">
<g clip-path="url(#clip0)">
<path d="M13.7483 0C12.6821 0.0737496 11.4359 0.756246 10.7096 1.64499C10.0471 2.45124 9.50212 3.64873 9.71462 4.81247C10.8796 4.84872 12.0833 4.14998 12.7808 3.24623C13.4333 2.40499 13.9271 1.21499 13.7483 0Z" fill="black"/>
<path d="M17.9634 6.71011C16.9397 5.42637 15.5009 4.68137 14.1422 4.68137C12.3485 4.68137 11.5897 5.54012 10.3435 5.54012C9.05847 5.54012 8.08223 4.68387 6.53099 4.68387C5.00724 4.68387 3.38475 5.61511 2.35601 7.20761C0.909769 9.45009 1.15727 13.6663 3.501 17.2575C4.33975 18.5425 5.45974 19.9875 6.92473 20C8.22848 20.0125 8.59597 19.1638 10.3622 19.155C12.1285 19.145 12.4635 20.0113 13.7647 19.9975C15.2309 19.9863 16.4122 18.385 17.2509 17.1C17.8522 16.1788 18.0759 15.7151 18.5422 14.6751C15.1509 13.3838 14.6072 8.56135 17.9634 6.71011Z" fill="black"/>
</g>
<defs>
<clipPath id="clip0">
<rect width="20" height="20" fill="white"/>
</clipPath>
</defs>
</svg>
