<svg width="32" height="32" viewBox="0 0 32 32" fill="none" xmlns="http://www.w3.org/2000/svg">
<path opacity="0.2" d="M26 8H21.9993L19.9993 5H11.9993L9.99927 8H6C5.46957 8 4.96086 8.21071 4.58579 8.58579C4.21071 8.96086 4 9.46957 4 10V24C4 24.5304 4.21071 25.0391 4.58579 25.4142C4.96086 25.7893 5.46957 26 6 26H26C26.5304 26 27.0391 25.7893 27.4142 25.4142C27.7893 25.0391 28 24.5304 28 24V10C28 9.46957 27.7893 8.96086 27.4142 8.58579C27.0391 8.21071 26.5304 8 26 8V8ZM16 21C15.11 21 14.24 20.7361 13.4999 20.2416C12.7599 19.7471 12.1831 19.0443 11.8425 18.2221C11.5019 17.3998 11.4128 16.495 11.5865 15.6221C11.7601 14.7492 12.1887 13.9474 12.818 13.318C13.4474 12.6887 14.2492 12.2601 15.1221 12.0865C15.995 11.9128 16.8998 12.0019 17.7221 12.3425C18.5443 12.6831 19.2471 13.2599 19.7416 13.9999C20.2361 14.74 20.5 15.61 20.5 16.5C20.5 17.6935 20.0259 18.8381 19.182 19.682C18.3381 20.5259 17.1935 21 16 21V21Z" fill="#1D2026"/>
<path d="M26 26H6C5.46957 26 4.96086 25.7893 4.58579 25.4142C4.21071 25.0391 4 24.5304 4 24V10C4 9.46957 4.21071 8.96086 4.58579 8.58579C4.96086 8.21071 5.46957 8 6 8H9.99927L11.9993 5H19.9993L21.9993 8H26C26.5304 8 27.0391 8.21071 27.4142 8.58579C27.7893 8.96086 28 9.46957 28 10V24C28 24.5304 27.7893 25.0391 27.4142 25.4142C27.0391 25.7893 26.5304 26 26 26Z" stroke="#1D2026" stroke-width="2" stroke-linecap="round" stroke-linejoin="round"/>
<path d="M16 21C18.4853 21 20.5 18.9853 20.5 16.5C20.5 14.0147 18.4853 12 16 12C13.5147 12 11.5 14.0147 11.5 16.5C11.5 18.9853 13.5147 21 16 21Z" stroke="#1D2026" stroke-width="2" stroke-linecap="round" stroke-linejoin="round"/>
</svg>
