<svg width="20" height="20" viewBox="0 0 20 20" fill="none" xmlns="http://www.w3.org/2000/svg">
<path d="M3.52546 15.3138C3.54495 15.396 3.58085 15.4733 3.63101 15.5412C3.68117 15.6092 3.74456 15.6662 3.81735 15.709C3.89014 15.7518 3.97084 15.7794 4.05458 15.7902C4.13833 15.801 4.22339 15.7947 4.30465 15.7718C8.03036 14.7431 11.9651 14.7427 15.6911 15.7707C15.7723 15.7936 15.8573 15.7999 15.941 15.7891C16.0247 15.7783 16.1054 15.7507 16.1782 15.7079C16.2509 15.6652 16.3143 15.6082 16.3645 15.5403C16.4146 15.4724 16.4506 15.3951 16.4701 15.3129L18.4614 6.85069C18.488 6.7374 18.4825 6.61892 18.4455 6.5086C18.4084 6.39827 18.3413 6.30047 18.2517 6.22623C18.1621 6.15198 18.0535 6.10424 17.9382 6.08836C17.8229 6.07249 17.7055 6.08913 17.5991 6.13639L13.6473 7.89277C13.5046 7.9562 13.3433 7.9639 13.1952 7.91437C13.0471 7.86485 12.9229 7.76167 12.8471 7.62517L10.5461 3.48342C10.492 3.38599 10.4128 3.3048 10.3167 3.24828C10.2207 3.19176 10.1112 3.16195 9.99979 3.16195C9.88833 3.16195 9.7789 3.19176 9.68283 3.24828C9.58677 3.3048 9.50757 3.38599 9.45344 3.48342L7.15247 7.62517C7.07664 7.76167 6.95245 7.86484 6.80435 7.91437C6.65626 7.9639 6.49499 7.95619 6.35229 7.89277L2.39983 6.13613C2.2935 6.08887 2.17609 6.07223 2.06082 6.08809C1.94555 6.10395 1.83699 6.15167 1.74737 6.22588C1.65775 6.30009 1.59063 6.39785 1.55356 6.50814C1.51649 6.61844 1.51095 6.73689 1.53755 6.85017L3.52546 15.3138Z" stroke="#FF6636" stroke-width="1.5" stroke-linecap="round" stroke-linejoin="round"/>
<path d="M7.5 12.6311C9.16208 12.4563 10.8379 12.4563 12.5 12.6311" stroke="#FF6636" stroke-width="1.5" stroke-linecap="round" stroke-linejoin="round"/>
</svg>
