<svg width="32" height="32" viewBox="0 0 32 32" fill="none" xmlns="http://www.w3.org/2000/svg">
<path opacity="0.2" d="M25 19.1076L20.4004 23.7072C20.2783 23.8294 20.1266 23.9178 19.9602 23.9639C19.7938 24.0099 19.6182 24.0122 19.4507 23.9703L12.2061 22.1591C12.0702 22.1252 11.943 22.063 11.8326 21.9767L5 16.6339L9.0718 8.97363L15.4868 7.10344C15.716 7.03664 15.9614 7.054 16.1789 7.1524L20.5 9.1076H17.9142C17.7829 9.1076 17.6529 9.13347 17.5315 9.18372C17.4102 9.23398 17.3 9.30764 17.2071 9.4005L12.3153 14.2923C12.214 14.3936 12.1356 14.5155 12.0855 14.6497C12.0354 14.784 12.0148 14.9274 12.0249 15.0703C12.0351 15.2132 12.0758 15.3523 12.1444 15.4781C12.213 15.6039 12.3078 15.7134 12.4224 15.7994L13.1 16.3076C13.7924 16.8269 14.6345 17.1076 15.5 17.1076C16.3655 17.1076 17.2076 16.8269 17.9 16.3076L19.5 15.1076L25 19.1076Z" fill="#23BD33"/>
<path d="M30.0897 15.2231L27 16.7679L23 9.10768L26.1212 7.5471C26.3557 7.42986 26.6268 7.40939 26.8763 7.4901C27.1257 7.57082 27.3335 7.74626 27.4548 7.97866L30.5289 13.8658C30.5904 13.9835 30.6278 14.1123 30.639 14.2446C30.6501 14.377 30.6348 14.5102 30.5939 14.6365C30.553 14.7629 30.4874 14.8798 30.4008 14.9805C30.3143 15.0812 30.2085 15.1637 30.0897 15.2231V15.2231Z" stroke="#23BD33" stroke-width="2" stroke-linecap="round" stroke-linejoin="round"/>
<path d="M5.00016 16.634L1.91045 15.0892C1.79167 15.0298 1.68591 14.9473 1.59934 14.8466C1.51277 14.7459 1.44713 14.629 1.40624 14.5026C1.36535 14.3763 1.35004 14.243 1.3612 14.1107C1.37236 13.9784 1.40977 13.8496 1.47124 13.7319L4.54536 7.84475C4.66671 7.61236 4.87447 7.43691 5.12391 7.35619C5.37334 7.27548 5.6445 7.29594 5.879 7.41319L9.00016 8.97377L5.00016 16.634Z" stroke="#23BD33" stroke-width="2" stroke-linecap="round" stroke-linejoin="round"/>
<path d="M27 16.7679L25 19.1076L20.4004 23.7073C20.2783 23.8294 20.1266 23.9178 19.9602 23.9639C19.7938 24.01 19.6182 24.0122 19.4507 23.9703L12.2061 22.1592C12.0702 22.1252 11.943 22.063 11.8326 21.9768L5 16.6339" stroke="#23BD33" stroke-width="2" stroke-linecap="round" stroke-linejoin="round"/>
<path d="M24.9999 19.1077L19.4999 15.1077L17.8999 16.3077C17.2075 16.827 16.3654 17.1077 15.4999 17.1077C14.6345 17.1077 13.7923 16.827 13.0999 16.3077L12.4223 15.7995C12.3077 15.7135 12.2129 15.6039 12.1443 15.4781C12.0758 15.3523 12.035 15.2133 12.0249 15.0704C12.0147 14.9275 12.0354 14.784 12.0855 14.6498C12.1356 14.5156 12.2139 14.3937 12.3152 14.2924L17.207 9.40056C17.2999 9.3077 17.4101 9.23404 17.5315 9.18379C17.6528 9.13353 17.7828 9.10767 17.9141 9.10767H22.9999" stroke="#23BD33" stroke-width="2" stroke-linecap="round" stroke-linejoin="round"/>
<path d="M9.07166 8.97363L15.4867 7.10344C15.7158 7.03664 15.9613 7.054 16.1788 7.1524L20.4999 9.10761" stroke="#23BD33" stroke-width="2" stroke-linecap="round" stroke-linejoin="round"/>
<path d="M14 26.6077L10.2326 25.6658C10.0797 25.6276 9.938 25.5538 9.81907 25.4504L7 23" stroke="#23BD33" stroke-width="2" stroke-linecap="round" stroke-linejoin="round"/>
</svg>
