<svg width="32" height="32" viewBox="0 0 32 32" fill="none" xmlns="http://www.w3.org/2000/svg">
<path opacity="0.2" d="M4 17V24C4 24.5304 4.21071 25.0391 4.58579 25.4142C4.96086 25.7893 5.46957 26 6 26H8C8.53043 26 9.03914 25.7893 9.41421 25.4142C9.78929 25.0391 10 24.5304 10 24V19C10 18.4696 9.78929 17.9609 9.41421 17.5858C9.03914 17.2107 8.53043 17 8 17H4Z" fill="#FD8E1F"/>
<path opacity="0.2" d="M24.1821 18H27.1821V24C27.1821 24.2652 27.0768 24.5196 26.8892 24.7071C26.7017 24.8946 26.4473 25 26.1821 25H24.1821C23.9169 25 23.6626 24.8946 23.475 24.7071C23.2875 24.5196 23.1821 24.2652 23.1821 24V19C23.1821 18.7348 23.2875 18.4804 23.475 18.2929C23.6626 18.1054 23.9169 18 24.1821 18Z" fill="#FD8E1F" stroke="#FD8E1F" stroke-width="2"/>
<path d="M28.182 17H24.182C23.6515 17 23.1428 17.2107 22.7678 17.5858C22.3927 17.9609 22.182 18.4696 22.182 19V24C22.182 24.5304 22.3927 25.0391 22.7678 25.4142C23.1428 25.7893 23.6515 26 24.182 26H26.182C26.7124 26 27.2211 25.7893 27.5962 25.4142C27.9713 25.0391 28.182 24.5304 28.182 24V17ZM28.182 17C28.182 15.4165 27.8686 13.8486 27.2598 12.3868C26.651 10.925 25.759 9.59808 24.635 8.48262C23.5111 7.36715 22.1775 6.48517 20.7111 5.88751C19.2447 5.28986 17.6745 4.98834 16.091 5.00034C14.5075 4.98834 12.9373 5.28986 11.4709 5.88751C10.0045 6.48517 8.6709 7.36715 7.54695 8.48262C6.423 9.59808 5.53093 10.925 4.92217 12.3868C4.31341 13.8486 4 15.4165 4 17V24C4 24.5304 4.21071 25.0391 4.58579 25.4142C4.96086 25.7893 5.46957 26 6 26H8C8.53043 26 9.03914 25.7893 9.41421 25.4142C9.78929 25.0391 10 24.5304 10 24V19C10 18.4696 9.78929 17.9609 9.41421 17.5858C9.03914 17.2107 8.53043 17 8 17H4" stroke="#FD8E1F" stroke-width="2" stroke-linecap="round" stroke-linejoin="round"/>
</svg>
