<svg width="24" height="24" viewBox="0 0 24 24" fill="none" xmlns="http://www.w3.org/2000/svg">
<path d="M12 16.5C14.4853 16.5 16.5 14.4853 16.5 12C16.5 9.51472 14.4853 7.5 12 7.5C9.51472 7.5 7.5 9.51472 7.5 12C7.5 14.4853 9.51472 16.5 12 16.5Z" stroke="#8C94A3" stroke-width="1.5" stroke-linecap="round" stroke-linejoin="round"/>
<path d="M11.5193 4.13946L9.75029 2.81309C9.65537 2.74169 9.54485 2.69387 9.42783 2.67356C9.3108 2.65326 9.19063 2.66106 9.07721 2.69631C8.52933 2.86788 7.99778 3.08781 7.48884 3.35349C7.38349 3.40875 7.29278 3.48828 7.22422 3.5855C7.15566 3.68272 7.1112 3.79486 7.09451 3.91265L6.78179 6.1018C6.66259 6.20746 6.54588 6.31736 6.43168 6.4315C6.31752 6.54566 6.2076 6.6624 6.10191 6.78169L6.10186 6.78173L3.9131 7.09473C3.7955 7.11136 3.68353 7.1557 3.58642 7.22409C3.48932 7.29248 3.40986 7.38297 3.35459 7.4881C3.08849 7.99682 2.86814 8.52819 2.69613 9.07594C2.66071 9.18951 2.65281 9.30988 2.67307 9.42711C2.69334 9.54434 2.7412 9.65507 2.81269 9.75016L4.13952 11.5192C4.12995 11.6783 4.12514 11.8385 4.12509 11.9999C4.12509 12.1614 4.1299 12.3217 4.13953 12.4808L4.13952 12.4808L2.81315 14.2498C2.74175 14.3447 2.69393 14.4553 2.67363 14.5723C2.65332 14.6893 2.66112 14.8095 2.69638 14.9229C2.86794 15.4708 3.08787 16.0023 3.35355 16.5113C3.40881 16.6166 3.48834 16.7073 3.58556 16.7759C3.68278 16.8445 3.79492 16.8889 3.91271 16.9056L6.10186 17.2183C6.20752 17.3375 6.31742 17.4542 6.43156 17.5684C6.54572 17.6826 6.66245 17.7925 6.78175 17.8982L6.78179 17.8983L7.09479 20.087C7.11142 20.2046 7.15575 20.3166 7.22415 20.4137C7.29254 20.5108 7.38303 20.5903 7.48816 20.6455C7.99688 20.9116 8.52825 21.132 9.07599 21.304C9.18957 21.3394 9.30994 21.3473 9.42717 21.327C9.5444 21.3068 9.65513 21.2589 9.75022 21.1874L11.5193 19.8606C11.6783 19.8702 11.8385 19.875 12 19.875C12.1614 19.875 12.3217 19.8702 12.4808 19.8606L12.4809 19.8606L14.2499 21.187C14.3448 21.2584 14.4553 21.3062 14.5723 21.3265C14.6894 21.3468 14.8095 21.339 14.923 21.3037C15.4708 21.1322 16.0024 20.9123 16.5113 20.6466C16.6167 20.5913 16.7074 20.5118 16.776 20.4146C16.8445 20.3173 16.889 20.2052 16.9057 20.0874L17.2184 17.8983C17.3376 17.7926 17.4543 17.6827 17.5685 17.5686C17.6827 17.4544 17.7926 17.3377 17.8983 17.2184L17.8983 17.2183L20.0871 16.9053C20.2047 16.8887 20.3166 16.8444 20.4138 16.776C20.5109 16.7076 20.5903 16.6171 20.6456 16.512C20.9117 16.0032 21.132 15.4719 21.304 14.9241C21.3395 14.8106 21.3474 14.6902 21.3271 14.573C21.3068 14.4557 21.259 14.345 21.1875 14.2499L19.8607 12.4808C19.8702 12.3218 19.875 12.1616 19.8751 12.0001C19.8751 11.8387 19.8703 11.6784 19.8607 11.5193L19.8607 11.5192L21.187 9.75023C21.2584 9.65532 21.3062 9.54479 21.3266 9.42777C21.3469 9.31074 21.3391 9.19057 21.3038 9.07715C21.1322 8.52927 20.9123 7.99772 20.6466 7.48878C20.5914 7.38343 20.5118 7.29273 20.4146 7.22416C20.3174 7.1556 20.2053 7.11114 20.0875 7.09445L17.8983 6.78173C17.7927 6.66253 17.6828 6.54583 17.5686 6.43163C17.4545 6.31746 17.3377 6.20754 17.2184 6.10185L17.2184 6.1018L16.9054 3.91304C16.8888 3.79544 16.8444 3.68347 16.776 3.58636C16.7076 3.48926 16.6171 3.40979 16.512 3.35452C16.0033 3.08843 15.4719 2.86808 14.9242 2.69607C14.8106 2.66065 14.6902 2.65275 14.573 2.67301C14.4558 2.69328 14.345 2.74113 14.25 2.81263L12.4809 4.13946C12.3219 4.12988 12.1616 4.12507 12.0002 4.12503C11.8387 4.12503 11.6785 4.12984 11.5194 4.13947L11.5193 4.13946Z" stroke="#8C94A3" stroke-width="1.5" stroke-linecap="round" stroke-linejoin="round"/>
</svg>
