<svg width="20" height="20" viewBox="0 0 20 20" fill="none" xmlns="http://www.w3.org/2000/svg">
<g clip-path="url(#clip0)">
<path d="M19.9799 5.88005C19.9331 4.81738 19.7612 4.0868 19.5151 3.45374C19.2611 2.78176 18.8704 2.18014 18.3585 1.68002C17.8584 1.1721 17.2528 0.777435 16.5886 0.527447C15.9519 0.281274 15.2251 0.109427 14.1625 0.0625732C13.0919 0.0117516 12.752 0 10.0366 0C7.32124 0 6.98136 0.0117516 5.91472 0.0586052C4.85204 0.105459 4.12146 0.277459 3.48855 0.523479C2.81643 0.777435 2.21481 1.16814 1.71468 1.68002C1.20677 2.18014 0.812254 2.78573 0.562114 3.44992C0.315942 4.0868 0.144095 4.81341 0.0972411 5.87609C0.0464195 6.9467 0.034668 7.28658 0.034668 10.002C0.034668 12.7173 0.0464195 13.0572 0.0932731 14.1239C0.140127 15.1865 0.312127 15.9171 0.558299 16.5502C0.812254 17.2221 1.20677 17.8238 1.71468 18.3239C2.21481 18.8318 2.8204 19.2265 3.48459 19.4765C4.12146 19.7226 4.84807 19.8945 5.9109 19.9413C6.97739 19.9883 7.31742 19.9999 10.0328 19.9999C12.7482 19.9999 13.088 19.9883 14.1547 19.9413C15.2174 19.8945 15.9479 19.7226 16.5808 19.4765C17.925 18.9568 18.9876 17.8941 19.5073 16.5502C19.7533 15.9133 19.9253 15.1865 19.9722 14.1239C20.019 13.0572 20.0308 12.7173 20.0308 10.002C20.0308 7.28658 20.0268 6.9467 19.9799 5.88005ZM18.1789 14.0457C18.1359 15.0225 17.9718 15.5499 17.8351 15.9015C17.499 16.7728 16.8075 17.4643 15.9362 17.8004C15.5846 17.9372 15.0533 18.1012 14.0804 18.1441C13.0255 18.1911 12.7091 18.2027 10.0406 18.2027C7.37206 18.2027 7.05172 18.1911 6.00064 18.1441C5.02389 18.1012 4.49644 17.9372 4.14481 17.8004C3.71122 17.6402 3.31656 17.3862 2.99621 17.0541C2.66412 16.7298 2.41016 16.3391 2.24991 15.9055C2.11317 15.5539 1.9491 15.0225 1.90622 14.0497C1.85921 12.9948 1.84761 12.6783 1.84761 10.0097C1.84761 7.34122 1.85921 7.02087 1.90622 5.96995C1.9491 4.99319 2.11317 4.46575 2.24991 4.11412C2.41016 3.68038 2.66412 3.28586 3.00018 2.96536C3.32434 2.63327 3.71504 2.37931 4.14878 2.21921C4.50041 2.08247 5.03182 1.9184 6.00461 1.87537C7.0595 1.82851 7.37603 1.81676 10.0444 1.81676C12.7169 1.81676 13.0333 1.82851 14.0843 1.87537C15.0611 1.9184 15.5885 2.08247 15.9402 2.21921C16.3737 2.37931 16.7684 2.63327 17.0888 2.96536C17.4209 3.28967 17.6748 3.68038 17.8351 4.11412C17.9718 4.46575 18.1359 4.99701 18.1789 5.96995C18.2258 7.02484 18.2375 7.34122 18.2375 10.0097C18.2375 12.6783 18.2258 12.9908 18.1789 14.0457Z" fill="#ff6636"/>
<path d="M10.0362 4.86423C7.19976 4.86423 4.89844 7.1654 4.89844 10.002C4.89844 12.8385 7.19976 15.1397 10.0362 15.1397C12.8727 15.1397 15.1739 12.8385 15.1739 10.002C15.1739 7.1654 12.8727 4.86423 10.0362 4.86423ZM10.0362 13.3347C8.19605 13.3347 6.70345 11.8422 6.70345 10.002C6.70345 8.16169 8.19605 6.66924 10.0362 6.66924C11.8764 6.66924 13.3689 8.16169 13.3689 10.002C13.3689 11.8422 11.8764 13.3347 10.0362 13.3347Z" fill="#ff6636"/>
<path d="M16.5772 4.6611C16.5772 5.32346 16.0402 5.86052 15.3777 5.86052C14.7153 5.86052 14.1782 5.32346 14.1782 4.6611C14.1782 3.99858 14.7153 3.46167 15.3777 3.46167C16.0402 3.46167 16.5772 3.99858 16.5772 4.6611Z" fill="#ff6636"/>
</g>
<defs>
<clipPath id="clip0">
<rect width="20" height="20" fill="white"/>
</clipPath>
</defs>
</svg>
