<svg width="19" height="18" viewBox="0 0 19 18" fill="none" xmlns="http://www.w3.org/2000/svg">
<path d="M18.9921 18.0002V17.9994H18.9966V11.3979C18.9966 8.16841 18.3013 5.68066 14.5258 5.68066C12.7108 5.68066 11.4928 6.67666 10.9955 7.62091H10.943V5.98216H7.36328V17.9994H11.0908V12.0489C11.0908 10.4822 11.3878 8.96716 13.328 8.96716C15.2398 8.96716 15.2683 10.7552 15.2683 12.1494V18.0002H18.9921Z" fill="white"/>
<path d="M1.29297 5.98291H5.02497V18.0002H1.29297V5.98291Z" fill="white"/>
<path d="M3.15759 0C1.96434 0 0.996094 0.96825 0.996094 2.1615C0.996094 3.35475 1.96434 4.34325 3.15759 4.34325C4.35084 4.34325 5.31909 3.35475 5.31909 2.1615C5.31834 0.96825 4.35009 0 3.15759 0V0Z" fill="white"/>
</svg>
