<svg width="159" height="40" viewBox="0 0 159 40" fill="none" xmlns="http://www.w3.org/2000/svg">
<path d="M2.25 15L21 5L39.75 15L21 25L2.25 15Z" stroke="#FF6636" stroke-width="3" stroke-linecap="round" stroke-linejoin="round"/>
<path d="M30.375 37.5V20L21 15" stroke="#FF6636" stroke-width="3" stroke-linecap="round" stroke-linejoin="round"/>
<path d="M35.375 17.334V25.8529C35.3755 26.1225 35.2884 26.385 35.1266 26.6008C34.074 28.0015 29.6333 33.1257 21 33.1257C12.3667 33.1257 7.92597 28.0015 6.87336 26.6008C6.71165 26.385 6.62449 26.1225 6.625 25.8529V17.334" stroke="#FF6636" stroke-width="3" stroke-linecap="round" stroke-linejoin="round"/>
<path d="M51.2955 32H66.5227V28.4659H55.5114V22.1136H65.6477V18.5795H55.5114V12.2614H66.4318V8.72727H51.2955V32ZM80.1707 18.6705H69.6934V22.0568H80.1707V18.6705ZM81.2902 12.2614H88.4834V32H92.6652V12.2614H99.8584V8.72727H81.2902V12.2614ZM111.046 24.6591C111.046 27.3182 109.148 28.6364 107.33 28.6364C105.353 28.6364 104.035 27.2386 104.035 25.0227V14.5455H99.9211V25.6591C99.9211 29.8523 102.307 32.2273 105.739 32.2273C108.353 32.2273 110.194 30.8523 110.989 28.8977H111.171V32H115.16V14.5455H111.046V24.6591ZM127.146 14.5455H123.703V10.3636H119.589V14.5455H117.112V17.7273H119.589V27.4318C119.566 30.7159 121.953 32.3295 125.044 32.2386C126.214 32.2045 127.021 31.9773 127.464 31.8295L126.771 28.6136C126.544 28.6705 126.078 28.7727 125.566 28.7727C124.532 28.7727 123.703 28.4091 123.703 26.75V17.7273H127.146V14.5455ZM137.052 32.3409C142.166 32.3409 145.416 28.7386 145.416 23.3409C145.416 17.9318 142.166 14.3182 137.052 14.3182C131.939 14.3182 128.689 17.9318 128.689 23.3409C128.689 28.7386 131.939 32.3409 137.052 32.3409ZM137.075 29.0455C134.245 29.0455 132.859 26.5227 132.859 23.3295C132.859 20.1364 134.245 17.5795 137.075 17.5795C139.859 17.5795 141.245 20.1364 141.245 23.3295C141.245 26.5227 139.859 29.0455 137.075 29.0455ZM147.947 32H152.061V21.7386C152.061 19.5227 153.731 17.9545 155.993 17.9545C156.686 17.9545 157.55 18.0795 157.902 18.1932V14.4091C157.527 14.3409 156.879 14.2955 156.425 14.2955C154.425 14.2955 152.754 15.4318 152.118 17.4545H151.936V14.5455H147.947V32Z" fill="#1D2026"/>
</svg>
