<svg width="192" height="40" viewBox="0 0 192 40" fill="none" xmlns="http://www.w3.org/2000/svg">
<path d="M2.25 15L21 5L39.75 15L21 25L2.25 15Z" stroke="#FF6636" stroke-width="3" stroke-linecap="round" stroke-linejoin="round"/>
<path d="M30.375 37.5V20L21 15" stroke="#FF6636" stroke-width="3" stroke-linecap="round" stroke-linejoin="round"/>
<path d="M35.375 17.3333V25.8522C35.3755 26.1219 35.2884 26.3844 35.1266 26.6002C34.074 28.0008 29.6333 33.125 21 33.125C12.3667 33.125 7.92597 28.0008 6.87336 26.6002C6.71165 26.3844 6.62449 26.1219 6.625 25.8522V17.3333" stroke="#FF6636" stroke-width="3" stroke-linecap="round" stroke-linejoin="round"/>
<path d="M51.2955 32H66.5227V28.4659H55.5114V22.1136H65.6477V18.5795H55.5114V12.2614H66.4318V8.72727H51.2955V32ZM76.0684 32.3068C79.0684 32.3068 80.4207 30.5227 81.0684 29.25H81.3184V32H85.3639V8.72727H81.2389V17.4318H81.0684C80.4434 16.1705 79.1593 14.3182 76.0798 14.3182C72.0457 14.3182 68.8752 17.4773 68.8752 23.2955C68.8752 29.0455 71.9548 32.3068 76.0684 32.3068ZM77.2161 28.9318C74.5002 28.9318 73.0684 26.5455 73.0684 23.2727C73.0684 20.0227 74.4775 17.6932 77.2161 17.6932C79.8639 17.6932 81.3184 19.8864 81.3184 23.2727C81.3184 26.6591 79.8411 28.9318 77.2161 28.9318ZM99.9124 24.6591C99.9124 27.3182 98.0147 28.6364 96.1965 28.6364C94.2192 28.6364 92.901 27.2386 92.901 25.0227V14.5455H88.7874V25.6591C88.7874 29.8523 91.1738 32.2273 94.6056 32.2273C97.2192 32.2273 99.0601 30.8523 99.8556 28.8977H100.037V32H104.026V14.5455H99.9124V24.6591ZM114.887 38.9091C119.603 38.9091 123.08 36.75 123.08 32.2841V14.5455H119.023V17.4318H118.796C118.171 16.1705 116.864 14.3182 113.785 14.3182C109.751 14.3182 106.58 17.4773 106.58 23.2159C106.58 28.9091 109.751 31.75 113.773 31.75C116.762 31.75 118.16 30.1477 118.796 28.8636H119.001V32.1705C119.001 34.7386 117.296 35.7955 114.955 35.7955C112.478 35.7955 111.387 34.625 110.887 33.6023L107.182 34.5C107.932 36.9432 110.444 38.9091 114.887 38.9091ZM114.921 28.5227C112.205 28.5227 110.773 26.4091 110.773 23.1932C110.773 20.0227 112.182 17.6932 114.921 17.6932C117.569 17.6932 119.023 19.8864 119.023 23.1932C119.023 26.5227 117.546 28.5227 114.921 28.5227ZM137.461 24.6591C137.461 27.3182 135.563 28.6364 133.745 28.6364C131.768 28.6364 130.45 27.2386 130.45 25.0227V14.5455H126.336V25.6591C126.336 29.8523 128.723 32.2273 132.154 32.2273C134.768 32.2273 136.609 30.8523 137.404 28.8977H137.586V32H141.575V14.5455H137.461V24.6591ZM149.868 32.3523C152.606 32.3523 154.243 31.0682 154.993 29.6023H155.129V32H159.084V20.3182C159.084 15.7045 155.322 14.3182 151.993 14.3182C148.322 14.3182 145.504 15.9545 144.595 19.1364L148.436 19.6818C148.845 18.4886 150.004 17.4659 152.015 17.4659C153.924 17.4659 154.97 18.4432 154.97 20.1591V20.2273C154.97 21.4091 153.731 21.4659 150.652 21.7955C147.265 22.1591 144.027 23.1705 144.027 27.1023C144.027 30.5341 146.538 32.3523 149.868 32.3523ZM150.936 29.3295C149.22 29.3295 147.993 28.5455 147.993 27.0341C147.993 25.4545 149.368 24.7955 151.209 24.5341C152.288 24.3864 154.447 24.1136 154.981 23.6818V25.7386C154.981 27.6818 153.413 29.3295 150.936 29.3295ZM162.26 32H166.374V21.7386C166.374 19.5227 168.044 17.9545 170.305 17.9545C170.999 17.9545 171.862 18.0795 172.214 18.1932V14.4091C171.839 14.3409 171.192 14.2955 170.737 14.2955C168.737 14.2955 167.067 15.4318 166.43 17.4545H166.249V14.5455H162.26V32ZM179.746 32.3068C182.746 32.3068 184.098 30.5227 184.746 29.25H184.996V32H189.041V8.72727H184.916V17.4318H184.746C184.121 16.1705 182.837 14.3182 179.757 14.3182C175.723 14.3182 172.553 17.4773 172.553 23.2955C172.553 29.0455 175.632 32.3068 179.746 32.3068ZM180.894 28.9318C178.178 28.9318 176.746 26.5455 176.746 23.2727C176.746 20.0227 178.155 17.6932 180.894 17.6932C183.541 17.6932 184.996 19.8864 184.996 23.2727C184.996 26.6591 183.519 28.9318 180.894 28.9318Z" fill="#1D2026"/>
</svg>
