<svg width="24" height="24" viewBox="0 0 24 24" fill="none" xmlns="http://www.w3.org/2000/svg">
<path d="M3.19421 13.1952C2.35557 11.7814 2.06187 10.1102 2.36826 8.49519C2.67466 6.88022 3.56007 5.43265 4.85823 4.42429C6.15639 3.41594 7.77801 2.91618 9.41858 3.01884C11.0591 3.1215 12.6058 3.81953 13.7681 4.98186C14.9305 6.14418 15.6285 7.69084 15.7312 9.33141C15.8338 10.972 15.3341 12.5936 14.3257 13.8918C13.3174 15.1899 11.8698 16.0754 10.2549 16.3818C8.63989 16.6882 6.96862 16.3945 5.55486 15.5558L5.55488 15.5558L3.22356 16.2219C3.1271 16.2494 3.02504 16.2507 2.92793 16.2255C2.83082 16.2003 2.74221 16.1497 2.67128 16.0787C2.60035 16.0078 2.54967 15.9192 2.52451 15.8221C2.49935 15.725 2.50061 15.6229 2.52817 15.5265L3.19426 13.1951L3.19421 13.1952Z" stroke="#fff" stroke-width="1.5" stroke-linecap="round" stroke-linejoin="round"/>
<path d="M8.63086 16.4899C8.96268 17.4319 9.49929 18.2886 10.202 18.9983C10.9048 19.7079 11.7561 20.2529 12.6948 20.594C13.6335 20.935 14.6362 21.0637 15.6306 20.9706C16.625 20.8776 17.5864 20.5651 18.4455 20.0558L18.4455 20.0557L20.7768 20.7218C20.8732 20.7494 20.9753 20.7507 21.0724 20.7255C21.1695 20.7003 21.2581 20.6497 21.3291 20.5787C21.4 20.5078 21.4507 20.4192 21.4758 20.3221C21.501 20.225 21.4997 20.1229 21.4722 20.0265L20.8061 17.6951L20.8061 17.6952C21.398 16.6971 21.7226 15.5633 21.7486 14.4032C21.7747 13.2431 21.5013 12.0959 20.9549 11.0722C20.4085 10.0485 19.6075 9.18291 18.6291 8.55894C17.6508 7.93497 16.5281 7.57368 15.3695 7.50992" stroke="#fff" stroke-width="1.5" stroke-linecap="round" stroke-linejoin="round"/>
</svg>
