<svg width="24" height="24" viewBox="0 0 24 24" fill="none" xmlns="http://www.w3.org/2000/svg">
<path d="M9 12.001H15" stroke="#A1A5B3" stroke-width="1.5" stroke-linecap="round" stroke-linejoin="round"/>
<path d="M9 15.001H15" stroke="#A1A5B3" stroke-width="1.5" stroke-linecap="round" stroke-linejoin="round"/>
<path d="M5.25 3.75098H18.75C18.9489 3.75098 19.1397 3.82999 19.2803 3.97065C19.421 4.1113 19.5 4.30206 19.5 4.50098V18.751C19.5 19.3477 19.2629 19.92 18.841 20.342C18.419 20.7639 17.8467 21.001 17.25 21.001H6.75C6.15326 21.001 5.58097 20.7639 5.15901 20.342C4.73705 19.92 4.5 19.3477 4.5 18.751V4.50098C4.5 4.30206 4.57902 4.1113 4.71967 3.97065C4.86032 3.82999 5.05109 3.75098 5.25 3.75098Z" stroke="#A1A5B3" stroke-width="1.5" stroke-linecap="round" stroke-linejoin="round"/>
<path d="M7.5 2.25098V5.25098" stroke="#A1A5B3" stroke-width="1.5" stroke-linecap="round" stroke-linejoin="round"/>
<path d="M12 2.25098V5.25098" stroke="#A1A5B3" stroke-width="1.5" stroke-linecap="round" stroke-linejoin="round"/>
<path d="M16.5 2.25098V5.25098" stroke="#A1A5B3" stroke-width="1.5" stroke-linecap="round" stroke-linejoin="round"/>
</svg>
