<svg width="24" height="24" viewBox="0 0 24 24" fill="none" xmlns="http://www.w3.org/2000/svg">
<path d="M7.62336 23.1723L8.03906 20.5318L7.11307 20.5104H2.69141L5.76424 1.02657C5.77339 0.96704 5.80362 0.912778 5.84944 0.873677C5.89525 0.834575 5.95359 0.813239 6.01382 0.813556H13.4694C15.9445 0.813556 17.6526 1.32861 18.5444 2.3452C18.9625 2.82211 19.2287 3.32047 19.3575 3.86891C19.4926 4.44437 19.495 5.1319 19.3631 5.97045L19.3535 6.03165V6.56896L19.7716 6.80582C20.0908 6.96752 20.3777 7.18626 20.6181 7.45123C20.9758 7.85898 21.2071 8.37721 21.3048 8.99162C21.4058 9.62352 21.3724 10.3754 21.2071 11.2267C21.0163 12.2059 20.7079 13.0588 20.2914 13.7567C19.924 14.3818 19.4299 14.9233 18.8409 15.3463C18.2877 15.739 17.6303 16.037 16.8872 16.2278C16.167 16.4154 15.346 16.51 14.4454 16.51H13.8652C13.4503 16.51 13.0473 16.6594 12.731 16.9273C12.4151 17.198 12.2055 17.572 12.1396 17.9828L12.0959 18.2205L11.3615 22.8742L11.3281 23.0451C11.3193 23.0992 11.3042 23.1262 11.282 23.1445C11.2604 23.1621 11.2335 23.1719 11.2057 23.1723H7.62336Z" fill="#253B80"/>
<path d="M20.1663 6.09395C20.144 6.23622 20.1186 6.38168 20.09 6.53111C19.1068 11.5791 15.743 13.323 11.4469 13.323H9.25954C8.73415 13.323 8.29143 13.7045 8.20956 14.2227L7.08964 21.3254L6.7725 23.3387C6.75986 23.4186 6.76469 23.5002 6.78664 23.578C6.80858 23.6559 6.84714 23.728 6.89964 23.7895C6.95214 23.851 7.01734 23.9004 7.09075 23.9342C7.16417 23.9681 7.24406 23.9857 7.32491 23.9857H11.2045C11.6639 23.9857 12.0542 23.6519 12.1265 23.1988L12.1647 23.0017L12.8951 18.3662L12.942 18.1119C13.0135 17.6572 13.4046 17.3234 13.864 17.3234H14.4443C18.203 17.3234 21.1455 15.7973 22.0055 11.3812C22.3648 9.53638 22.1788 7.99599 21.2282 6.91263C20.9269 6.5775 20.567 6.30007 20.1663 6.09395Z" fill="#179BD7"/>
<path d="M19.1391 5.68342C18.8252 5.5926 18.5058 5.52172 18.1829 5.4712C17.5449 5.37315 16.9001 5.32611 16.2547 5.33051H10.411C10.1886 5.33034 9.97353 5.40974 9.80458 5.55435C9.63563 5.69896 9.52398 5.89924 9.48983 6.11899L8.24671 13.9926L8.21094 14.2223C8.24966 13.9717 8.37682 13.7432 8.56941 13.5781C8.762 13.4131 9.00729 13.3225 9.26091 13.3226H11.4483C15.7444 13.3226 19.1081 11.5779 20.0913 6.53072C20.1207 6.38129 20.1454 6.23583 20.1676 6.09356C19.9082 5.9575 19.6378 5.84344 19.3593 5.75257C19.2863 5.72835 19.2129 5.70529 19.1391 5.68342Z" fill="#222D65"/>
<path d="M9.48914 6.11944C9.523 5.89963 9.63459 5.69925 9.80363 5.55471C9.97267 5.41018 10.1879 5.33107 10.4104 5.33176H16.254C16.9463 5.33176 17.5925 5.37706 18.1823 5.47244C18.5814 5.53517 18.9749 5.62898 19.3594 5.75302C19.6495 5.8492 19.919 5.96286 20.1678 6.09401C20.4603 4.22853 20.1654 2.95838 19.1567 1.80825C18.0448 0.542078 16.0378 0 13.4697 0H6.01411C5.48952 0 5.04203 0.381521 4.96096 0.900549L1.85553 20.5847C1.84107 20.676 1.84657 20.7695 1.87166 20.8585C1.89676 20.9476 1.94084 21.0302 2.00089 21.1006C2.06094 21.171 2.13552 21.2275 2.21951 21.2663C2.3035 21.3052 2.3949 21.3253 2.48743 21.3254H7.09032L8.24601 13.9931L9.48914 6.11944Z" fill="#253B80"/>
</svg>
