<svg width="16" height="16" viewBox="0 0 16 16" fill="none" xmlns="http://www.w3.org/2000/svg">
<path d="M13.5925 7.57338L4.59398 2.0741C4.51819 2.02778 4.43142 2.00248 4.34261 2.00082C4.2538 1.99916 4.16615 2.02118 4.08868 2.06463C4.0112 2.10808 3.9467 2.17139 3.90181 2.24803C3.85692 2.32468 3.83325 2.41191 3.83325 2.50073V13.4993C3.83325 13.5881 3.85692 13.6754 3.90181 13.752C3.9467 13.8287 4.0112 13.892 4.08868 13.9354C4.16615 13.9789 4.2538 14.0009 4.34261 13.9992C4.43142 13.9976 4.51819 13.9723 4.59398 13.9259L13.5925 8.42666C13.6656 8.38199 13.726 8.3193 13.7679 8.2446C13.8098 8.16989 13.8318 8.08567 13.8318 8.00002C13.8318 7.91437 13.8098 7.83015 13.7679 7.75545C13.726 7.68074 13.6656 7.61805 13.5925 7.57338Z" fill="#1D2026"/>
</svg>
