<svg width="56" height="56" viewBox="0 0 56 56" fill="none" xmlns="http://www.w3.org/2000/svg">
<path opacity="0.2" d="M23.625 31.5H8.75C8.28587 31.5 7.84075 31.3156 7.51256 30.9874C7.18437 30.6593 7 30.2141 7 29.75V15.75C7 15.2859 7.18437 14.8408 7.51256 14.5126C7.84075 14.1844 8.28587 14 8.75 14H21.875C22.3391 14 22.7842 14.1844 23.1124 14.5126C23.4406 14.8408 23.625 15.2859 23.625 15.75V31.5Z" fill="#FF6636"/>
<path opacity="0.2" d="M49 31.5H34.125C33.6609 31.5 33.2158 31.3156 32.8876 30.9874C32.5594 30.6593 32.375 30.2141 32.375 29.75V15.75C32.375 15.2859 32.5594 14.8408 32.8876 14.5126C33.2158 14.1844 33.6609 14 34.125 14H47.25C47.7141 14 48.1592 14.1844 48.4874 14.5126C48.8156 14.8408 49 15.2859 49 15.75V31.5Z" fill="#FF6636"/>
<path d="M23.625 31.5H8.75C8.28587 31.5 7.84075 31.3156 7.51256 30.9874C7.18437 30.6592 7 30.2141 7 29.75V15.75C7 15.2859 7.18437 14.8408 7.51256 14.5126C7.84075 14.1844 8.28587 14 8.75 14H21.875C22.3391 14 22.7842 14.1844 23.1124 14.5126C23.4406 14.8408 23.625 15.2859 23.625 15.75V35C23.625 37.3206 22.7031 39.5462 21.0622 41.1872C19.4212 42.8281 17.1956 43.75 14.875 43.75" stroke="#FF6636" stroke-width="3" stroke-linecap="round" stroke-linejoin="round"/>
<path d="M49 31.5H34.125C33.6609 31.5 33.2158 31.3156 32.8876 30.9874C32.5594 30.6592 32.375 30.2141 32.375 29.75V15.75C32.375 15.2859 32.5594 14.8408 32.8876 14.5126C33.2158 14.1844 33.6609 14 34.125 14H47.25C47.7141 14 48.1592 14.1844 48.4874 14.5126C48.8156 14.8408 49 15.2859 49 15.75V35C49 37.3206 48.0781 39.5462 46.4372 41.1872C44.7962 42.8281 42.5706 43.75 40.25 43.75" stroke="#FF6636" stroke-width="3" stroke-linecap="round" stroke-linejoin="round"/>
</svg>
