<svg width="20" height="20" viewBox="0 0 20 20" fill="none" xmlns="http://www.w3.org/2000/svg">
<path d="M18.2422 10.5859H12.3438C11.3745 10.5859 10.5859 11.3745 10.5859 12.3438C10.5859 13.313 11.3745 14.1016 12.3438 14.1016H18.2422C19.2114 14.1016 20 13.313 20 12.3438C20 11.3745 19.2114 10.5859 18.2422 10.5859Z" fill="#FF6636"/>
<path d="M7.65625 5.89844H1.75781C0.788555 5.89844 0 6.68699 0 7.65625C0 8.62551 0.788555 9.41406 1.75781 9.41406H7.65625C8.62551 9.41406 9.41406 8.62551 9.41406 7.65625C9.41406 6.68699 8.62551 5.89844 7.65625 5.89844Z" fill="#FF6636"/>
<path d="M12.3438 9.41406C13.313 9.41406 14.1016 8.62551 14.1016 7.65625V1.75781C14.1016 0.788555 13.313 0 12.3438 0C11.3745 0 10.5859 0.788555 10.5859 1.75781V7.65625C10.5859 8.62551 11.3745 9.41406 12.3438 9.41406Z" fill="#FF6636"/>
<path d="M7.65625 10.5859C6.68699 10.5859 5.89844 11.3745 5.89844 12.3438V18.2422C5.89844 19.2114 6.68699 20 7.65625 20C8.62551 20 9.41406 19.2114 9.41406 18.2422V12.3438C9.41406 11.3745 8.62551 10.5859 7.65625 10.5859Z" fill="#FF6636"/>
<path d="M15.8984 9.41406H17.6562C18.9486 9.41406 20 8.36266 20 7.07031C20 5.77797 18.9486 4.72656 17.6562 4.72656C16.3639 4.72656 15.3125 5.77797 15.3125 7.07031V8.82812C15.3125 9.15172 15.5748 9.41406 15.8984 9.41406Z" fill="#FF6636"/>
<path d="M4.10156 10.5859H2.34375C1.05141 10.5859 0 11.6373 0 12.9297C0 14.222 1.05141 15.2734 2.34375 15.2734C3.63609 15.2734 4.6875 14.222 4.6875 12.9297V11.1719C4.6875 10.8483 4.42516 10.5859 4.10156 10.5859Z" fill="#FF6636"/>
<path d="M7.07031 0C5.77797 0 4.72656 1.05141 4.72656 2.34375C4.72656 3.63609 5.77797 4.6875 7.07031 4.6875H8.82812C9.15172 4.6875 9.41406 4.42516 9.41406 4.10156V2.34375C9.41406 1.05141 8.36266 0 7.07031 0Z" fill="#FF6636"/>
<path d="M12.9297 15.3125H11.1719C10.8483 15.3125 10.5859 15.5748 10.5859 15.8984V17.6562C10.5859 18.9486 11.6373 20 12.9297 20C14.222 20 15.2734 18.9486 15.2734 17.6562C15.2734 16.3639 14.222 15.3125 12.9297 15.3125Z" fill="#FF6636"/>
</svg>
