<svg width="20" height="20" viewBox="0 0 20 20" fill="none" xmlns="http://www.w3.org/2000/svg">
<path d="M9.33319 14.3948C9.33345 14.3947 9.3337 14.3945 9.33396 14.3943L9.33319 14.3948ZM9.33319 14.3948L5.67258 16.714C5.62982 16.7411 5.59669 16.7454 5.57129 16.7437C5.54212 16.7417 5.50769 16.73 5.47479 16.7051C5.41054 16.6563 5.37411 16.5775 5.39974 16.4766L6.45512 12.325C6.45521 12.3246 6.45531 12.3243 6.4554 12.3239C6.51527 12.0901 6.50804 11.8442 6.43455 11.6143C6.36094 11.384 6.22384 11.1792 6.03902 11.0235L6.03615 11.0211L2.50277 8.08016C2.48505 8.06541 2.48001 8.05363 2.4775 8.04408C2.47407 8.03108 2.47353 8.0121 2.48001 7.99129C2.48649 7.97044 2.49674 7.95807 2.50296 7.95281L2.50299 7.95279C2.50614 7.95013 2.51151 7.94559 2.52964 7.94442L7.14401 7.64494L7.14401 7.64495L7.14791 7.64468C7.38558 7.6277 7.61354 7.54355 7.80525 7.40203C7.99621 7.26105 8.14337 7.06893 8.22973 6.84788L9.95 2.5158L9.95007 2.51582L9.95334 2.50721C9.95693 2.49774 9.96332 2.48959 9.97165 2.48383C9.97999 2.47808 9.98988 2.475 10 2.475C10.0101 2.475 10.02 2.47808 10.0284 2.48383C10.0367 2.48958 10.0431 2.49774 10.0467 2.50721L10.0466 2.50723L10.05 2.5158L11.7702 6.84774C11.8566 7.06885 12.0038 7.26102 12.1948 7.40203C12.3865 7.54355 12.6144 7.6277 12.8521 7.64468L12.8521 7.64469L12.856 7.64494L17.4704 7.94442C17.4885 7.94559 17.4939 7.95013 17.497 7.95279L17.497 7.95281C17.5033 7.95807 17.5135 7.97044 17.52 7.99129C17.5265 8.0121 17.5259 8.03108 17.5225 8.04408C17.52 8.05363 17.515 8.06541 17.4972 8.08016L13.9639 11.0211L13.9638 11.021L13.961 11.0235C13.7762 11.1792 13.6391 11.384 13.5655 11.6143C13.4919 11.8443 13.4847 12.0904 13.5447 12.3243C13.5448 12.3246 13.5448 12.3248 13.5449 12.325L14.6829 16.8018C14.69 16.8295 14.6863 16.8448 14.6829 16.8537C14.6785 16.8656 14.6697 16.8781 14.6568 16.8879C14.644 16.8976 14.6337 16.8997 14.63 16.9C14.6284 16.9001 14.6268 16.9 14.6246 16.8994C14.6225 16.8989 14.6163 16.8971 14.606 16.8905L10.6668 14.3948C10.6666 14.3947 10.6663 14.3945 10.666 14.3943L9.33319 14.3948Z" stroke="#FD8E1F" stroke-width="1.2" stroke-linecap="round" stroke-linejoin="round"/>
</svg>
