<svg width="18" height="17" viewBox="0 0 18 17" fill="none" xmlns="http://www.w3.org/2000/svg">
<path d="M4.39974 15.4766L5.45512 11.325C5.4552 11.3247 5.45529 11.3243 5.45537 11.324C5.51527 11.0902 5.50806 10.8442 5.43455 10.6143C5.36094 10.384 5.22384 10.1792 5.03902 10.0235L5.03615 10.0211L1.50277 7.08016C1.48505 7.06541 1.48001 7.05363 1.4775 7.04408C1.47407 7.03108 1.47353 7.0121 1.48001 6.99129C1.48649 6.97044 1.49674 6.95807 1.50296 6.95281L1.50299 6.95279C1.50614 6.95013 1.51151 6.94559 1.52964 6.94442L6.14401 6.64494L6.14401 6.64495L6.14791 6.64468C6.38558 6.6277 6.61354 6.54355 6.80525 6.40203C6.99623 6.26104 7.14339 6.0689 7.22975 5.84783L8.95 1.5158L8.95007 1.51582L8.95334 1.5072C8.95693 1.49774 8.96332 1.48959 8.97165 1.48383C8.97999 1.47808 8.98988 1.475 9 1.475C9.01013 1.475 9.02002 1.47808 9.02835 1.48383C9.03669 1.48959 9.04308 1.49774 9.04667 1.5072L9.0466 1.50723L9.05 1.5158L10.7703 5.84782C10.8566 6.0689 11.0038 6.26104 11.1948 6.40203C11.3865 6.54355 11.6144 6.6277 11.8521 6.64468L11.8521 6.64469L11.856 6.64494L16.4704 6.94442C16.4885 6.94559 16.4939 6.95013 16.497 6.95279L16.497 6.95281C16.5033 6.95807 16.5135 6.97044 16.52 6.99129C16.5265 7.0121 16.5259 7.03108 16.5225 7.04408C16.52 7.05364 16.515 7.06541 16.4972 7.08016L12.9639 10.0211L12.9638 10.021L12.961 10.0235C12.7762 10.1792 12.6391 10.384 12.5655 10.6143L13.137 10.797L12.5654 10.6143C12.4919 10.8443 12.4847 11.0903 12.5447 11.3241C12.5447 11.3244 12.5448 11.3247 12.5449 11.325L13.6829 15.8018C13.69 15.8295 13.6863 15.8448 13.6829 15.8537C13.6785 15.8656 13.6697 15.8781 13.6568 15.8879C13.644 15.8976 13.6337 15.8997 13.63 15.9C13.6284 15.9001 13.6268 15.9 13.6246 15.8994C13.6225 15.8989 13.6163 15.8971 13.606 15.8905L9.66681 13.3948C9.66661 13.3947 9.66641 13.3946 9.66621 13.3945C9.46708 13.2679 9.23599 13.2006 9 13.2006C8.76414 13.2006 8.53316 13.2678 8.3341 13.3943C8.3338 13.3945 8.33349 13.3946 8.33319 13.3948L4.67258 15.714C4.62982 15.7411 4.59669 15.7454 4.57129 15.7437C4.54212 15.7417 4.50769 15.73 4.47479 15.7051C4.41054 15.6563 4.37411 15.5775 4.39974 15.4766Z" stroke="#FD8E1F" stroke-width="1.2" stroke-linecap="round" stroke-linejoin="round"/>
</svg>
