<svg width="19" height="15" viewBox="0 0 19 15" fill="none" xmlns="http://www.w3.org/2000/svg">
<path d="M18.9961 1.73137C18.3267 2.025 17.6135 2.21962 16.8698 2.31412C17.6348 1.85737 18.2187 1.13962 18.4932 0.2745C17.78 0.69975 16.9925 1.00013 16.1532 1.16775C15.476 0.446625 14.5107 0 13.4577 0C11.4147 0 9.76997 1.65825 9.76997 3.69113C9.76997 3.98363 9.79472 4.26487 9.85547 4.53262C6.78759 4.383 4.07297 2.91263 2.24934 0.67275C1.93097 1.22513 1.74422 1.85738 1.74422 2.538C1.74422 3.816 2.40234 4.94887 3.38334 5.60475C2.79047 5.5935 2.20884 5.42138 1.71609 5.15025C1.71609 5.1615 1.71609 5.17613 1.71609 5.19075C1.71609 6.984 2.99522 8.4735 4.67259 8.81662C4.37222 8.89875 4.04484 8.93812 3.70509 8.93812C3.46884 8.93812 3.23034 8.92463 3.00647 8.87512C3.48459 10.3365 4.84134 11.4109 6.45459 11.4457C5.19909 12.4279 3.60497 13.0196 1.87922 13.0196C1.57659 13.0196 1.28634 13.0061 0.996094 12.969C2.63072 14.0231 4.56797 14.625 6.65709 14.625C13.4476 14.625 17.1601 9 17.1601 4.12425C17.1601 3.96112 17.1545 3.80363 17.1466 3.64725C17.879 3.1275 18.4943 2.47837 18.9961 1.73137Z" fill="white"/>
</svg>
