<svg width="32" height="12" viewBox="0 0 32 12" fill="none" xmlns="http://www.w3.org/2000/svg">
<path fill-rule="evenodd" clip-rule="evenodd" d="M11.2612 11.1555H13.8723L15.5045 0.850799H12.8931L11.2612 11.1555ZM6.57518 7.93848L9.06452 0.850799H11.8747L7.72046 11.1558H4.99987L2.73132 2.20312C1.25848 1.29431 0 1.02528 0 1.02528L0.000270457 1.02431C0.0267351 1.02999 1.99082 1.4561 3.87524 3.02351C5.66033 4.50773 6.26165 6.35174 6.28042 6.41032L6.28089 6.41278L6.28062 6.41223L6.57518 7.93848ZM32 11.1555H29.6024L29.2966 9.62488H25.9772L25.4329 11.1555H22.7109L26.6052 1.61847C26.6052 1.61847 26.8413 0.850524 27.8106 0.850524H29.9096L32 11.1555ZM28.1011 3.65412L26.7292 7.5104H28.873L28.1011 3.65412ZM23.2877 1.11597L22.9151 3.32885C21.7977 2.69625 19.2547 2.54657 19.2545 3.71173C19.2545 4.17461 19.8298 4.49295 20.5233 4.87663C21.5751 5.45852 22.8985 6.19071 22.8985 7.80534C22.8985 10.3854 20.2103 11.3333 18.4284 11.3333C16.6471 11.3333 15.4812 10.7514 15.4812 10.7514L15.8693 8.43767C16.9384 9.31947 20.1779 9.57003 20.1779 8.17168C20.1779 7.58408 19.5402 7.23756 18.8007 6.83573C17.7804 6.2813 16.5663 5.62158 16.5663 4.07806C16.5663 1.24856 19.6435 0.666668 20.9392 0.666668C22.1379 0.666668 23.2877 1.11597 23.2877 1.11597Z" fill="#2566AF"/>
<path d="M6.29275 6.26841L5.41249 1.7496C5.41249 1.7496 5.30605 0.844868 4.17151 0.844868H0.048381L0 1.01501C0 1.01501 1.98174 1.42571 3.88257 2.9645C5.70008 4.43529 6.29275 6.26841 6.29275 6.26841Z" fill="#E6A540"/>
</svg>
