<svg width="19" height="13" viewBox="0 0 19 13" fill="none" xmlns="http://www.w3.org/2000/svg">
<path fill-rule="evenodd" clip-rule="evenodd" d="M17.0388 0.385481C17.8098 0.593122 18.4177 1.20094 18.6252 1.97204C19.0109 3.38048 18.996 6.31629 18.996 6.31629C18.996 6.31629 18.996 9.23713 18.6254 10.6457C18.4177 11.4167 17.8099 12.0246 17.0388 12.2321C15.6302 12.6029 9.99606 12.6029 9.99606 12.6029C9.99606 12.6029 4.37657 12.6029 2.9533 12.2174C2.1822 12.0098 1.57438 11.4018 1.36674 10.6309C0.996094 9.23713 0.996094 6.30146 0.996094 6.30146C0.996094 6.30146 0.996094 3.38048 1.36674 1.97204C1.57425 1.20108 2.19703 0.57829 2.95316 0.370787C4.36174 0 9.99592 0 9.99592 0C9.99592 0 15.6302 0 17.0388 0.385481ZM12.8874 6.30154L8.20215 9.00006V3.60303L12.8874 6.30154Z" fill="white"/>
</svg>
